<svg xmlns="http://www.w3.org/2000/svg" style="display:none">
  <symbol id="chat" viewBox="0 0 24 24" stroke-width="1.5" stroke="currentColor" fill="none" stroke-linecap="round" stroke-linejoin="round">
    <path d="M4 5h16v11H7l-3 3z" />
  </symbol>
  <symbol id="feed" viewBox="0 0 24 24" stroke-width="1.5" stroke="currentColor" fill="none" stroke-linecap="round" stroke-linejoin="round">
    <path d="M5 4h14v4H5zM5 10h14v4H5zM5 16h9v4H5z" />
  </symbol>
  <symbol id="video" viewBox="0 0 24 24" stroke-width="1.5" stroke="currentColor" fill="none" stroke-linecap="round" stroke-linejoin="round">
    <rect x="3" y="5" width="14" height="14" rx="3"/>
    <path d="M17 9l4-2v10l-4-2"/>
  </symbol>
  <symbol id="photo" viewBox="0 0 24 24" stroke-width="1.5" stroke="currentColor" fill="none" stroke-linecap="round" stroke-linejoin="round">
    <rect x="3" y="4" width="18" height="16" rx="3"/>
    <circle cx="9" cy="10" r="2.5"/>
    <path d="M21 15l-4-4-6 6"/>
  </symbol>
  <symbol id="search" viewBox="0 0 24 24" stroke-width="1.5" stroke="currentColor" fill="none" stroke-linecap="round" stroke-linejoin="round">
    <circle cx="11" cy="11" r="6"/>
    <path d="M20 20l-3.5-3.5"/>
  </symbol>
  <symbol id="profile" viewBox="0 0 24 24" stroke-width="1.5" stroke="currentColor" fill="none" stroke-linecap="round" stroke-linejoin="round">
    <circle cx="12" cy="8" r="4"/>
    <path d="M5 20c1.5-3 4.5-5 7-5s5.5 2 7 5"/>
  </symbol>
  <symbol id="chevron-left" viewBox="0 0 24 24" stroke-width="1.5" stroke="currentColor" fill="none" stroke-linecap="round" stroke-linejoin="round">
    <path d="M15 6l-6 6 6 6" />
  </symbol>
  <symbol id="more" viewBox="0 0 24 24" stroke-width="1.5" stroke="currentColor" fill="none" stroke-linecap="round" stroke-linejoin="round">
    <circle cx="6" cy="12" r="1"/>
    <circle cx="12" cy="12" r="1"/>
    <circle cx="18" cy="12" r="1"/>
  </symbol>
  <symbol id="close" viewBox="0 0 24 24" stroke-width="1.5" stroke="currentColor" fill="none" stroke-linecap="round" stroke-linejoin="round">
    <path d="M6 6l12 12M6 18L18 6"/>
  </symbol>
  <symbol id="like" viewBox="0 0 24 24" stroke-width="1.5" stroke="currentColor" fill="none" stroke-linecap="round" stroke-linejoin="round">
    <path d="M12 20l-7-7a4 4 0 016-6l1 1 1-1a4 4 0 016 6z"/>
  </symbol>
  <symbol id="comment" viewBox="0 0 24 24" stroke-width="1.5" stroke="currentColor" fill="none" stroke-linecap="round" stroke-linejoin="round">
    <path d="M4 5h16v11H8l-4 4z"/>
  </symbol>
  <symbol id="share" viewBox="0 0 24 24" stroke-width="1.5" stroke="currentColor" fill="none" stroke-linecap="round" stroke-linejoin="round">
    <path d="M4 12v7h16v-7"/>
    <path d="M12 4v12"/>
    <path d="M8 8l4-4 4 4"/>
  </symbol>
  <symbol id="repost" viewBox="0 0 24 24" stroke-width="1.5" stroke="currentColor" fill="none" stroke-linecap="round" stroke-linejoin="round">
    <path d="M6 17h9a3 3 0 003-3V5"/>
    <path d="M15 8l3-3 3 3"/>
    <path d="M18 7H9a3 3 0 00-3 3v9"/>
    <path d="M9 16l-3 3-3-3"/>
  </symbol>
  <symbol id="pin" viewBox="0 0 24 24" stroke-width="1.5" stroke="currentColor" fill="none" stroke-linecap="round" stroke-linejoin="round">
    <path d="M8 3h8l-2 6v5l2 2v1H8v-1l2-2V9z"/>
  </symbol>
  <symbol id="archive" viewBox="0 0 24 24" stroke-width="1.5" stroke="currentColor" fill="none" stroke-linecap="round" stroke-linejoin="round">
    <rect x="4" y="5" width="16" height="15" rx="2"/>
    <path d="M4 9h16"/>
    <path d="M10 13h4"/>
  </symbol>
  <symbol id="delete" viewBox="0 0 24 24" stroke-width="1.5" stroke="currentColor" fill="none" stroke-linecap="round" stroke-linejoin="round">
    <path d="M5 7h14"/>
    <path d="M10 11v6"/>
    <path d="M14 11v6"/>
    <path d="M6 7l1 12a2 2 0 002 2h6a2 2 0 002-2l1-12"/>
    <path d="M9 7V4h6v3"/>
  </symbol>
  <symbol id="copy" viewBox="0 0 24 24" stroke-width="1.5" stroke="currentColor" fill="none" stroke-linecap="round" stroke-linejoin="round">
    <rect x="9" y="9" width="11" height="11" rx="2"/>
    <path d="M6 15H5a2 2 0 01-2-2V5a2 2 0 012-2h8a2 2 0 012 2v1"/>
  </symbol>
  <symbol id="reply" viewBox="0 0 24 24" stroke-width="1.5" stroke="currentColor" fill="none" stroke-linecap="round" stroke-linejoin="round">
    <path d="M7 7l-4 4 4 4"/>
    <path d="M3 11h10a7 7 0 017 7v1"/>
  </symbol>
  <symbol id="edit" viewBox="0 0 24 24" stroke-width="1.5" stroke="currentColor" fill="none" stroke-linecap="round" stroke-linejoin="round">
    <path d="M4 20h4l10-10-4-4L4 16z"/>
    <path d="M14 6l4 4"/>
  </symbol>
</svg>
